<svg width="20" height="20" viewBox="0 0 20 20" fill="none" xmlns="http://www.w3.org/2000/svg">
<path fill-rule="evenodd" clip-rule="evenodd" d="M10.2045 18.3317C9.07531 18.3317 7.97448 18.3192 6.88531 18.2967C5.49198 18.2692 4.52781 17.3658 4.37031 15.9392C4.10781 13.5725 3.65865 7.99417 3.65448 7.93833C3.62615 7.59417 3.88281 7.2925 4.22698 7.265C4.56615 7.25583 4.87281 7.49417 4.90031 7.8375C4.90448 7.89417 5.35281 13.4533 5.61281 15.8017C5.70198 16.6125 6.13948 17.0308 6.91115 17.0467C8.99448 17.0908 11.1203 17.0933 13.412 17.0517C14.232 17.0358 14.6753 16.6258 14.767 15.7958C15.0253 13.4675 15.4753 7.89417 15.4803 7.8375C15.5078 7.49417 15.812 7.25417 16.1528 7.265C16.497 7.29333 16.7536 7.59417 16.7261 7.93833C16.7211 7.995 16.2695 13.5875 16.0095 15.9333C15.8478 17.3892 14.8861 18.275 13.4345 18.3017C12.3236 18.3208 11.252 18.3317 10.2045 18.3317Z" fill="#4F4F4F"/>
<path fill-rule="evenodd" clip-rule="evenodd" d="M17.2567 5.82324H3.125C2.78 5.82324 2.5 5.54324 2.5 5.19824C2.5 4.85324 2.78 4.57324 3.125 4.57324H17.2567C17.6017 4.57324 17.8817 4.85324 17.8817 5.19824C17.8817 5.54324 17.6017 5.82324 17.2567 5.82324Z" fill="#4F4F4F"/>
<path fill-rule="evenodd" clip-rule="evenodd" d="M14.5335 5.82352C13.5852 5.82352 12.7618 5.14768 12.5752 4.21768L12.3727 3.20435C12.3302 3.05018 12.1543 2.91602 11.9543 2.91602H8.42682C8.22682 2.91602 8.05099 3.05018 8.00016 3.24268L7.80599 4.21768C7.62016 5.14768 6.79599 5.82352 5.84766 5.82352C5.50266 5.82352 5.22266 5.54352 5.22266 5.19852C5.22266 4.85352 5.50266 4.57352 5.84766 4.57352C6.20266 4.57352 6.51099 4.32018 6.58099 3.97185L6.78349 2.95852C6.98932 2.18185 7.66182 1.66602 8.42682 1.66602H11.9543C12.7193 1.66602 13.3918 2.18185 13.5893 2.92102L13.801 3.97185C13.8702 4.32018 14.1785 4.57352 14.5335 4.57352C14.8785 4.57352 15.1585 4.85352 15.1585 5.19852C15.1585 5.54352 14.8785 5.82352 14.5335 5.82352Z" fill="#4F4F4F"/>
</svg>
