<svg width="15" height="16" viewBox="0 0 15 16" fill="none" xmlns="http://www.w3.org/2000/svg">
<path d="M7.5 8.70312C7.88832 8.70312 8.20312 8.38832 8.20312 8C8.20312 7.61167 7.88832 7.29688 7.5 7.29688C7.11167 7.29688 6.79688 7.61167 6.79688 8C6.79688 8.38832 7.11167 8.70312 7.5 8.70312Z" fill="black"/>
<path d="M7.5 4.95312C7.88832 4.95312 8.20312 4.63833 8.20312 4.25C8.20312 3.86167 7.88832 3.54688 7.5 3.54688C7.11167 3.54688 6.79688 3.86167 6.79688 4.25C6.79688 4.63833 7.11167 4.95312 7.5 4.95312Z" fill="black"/>
<path d="M7.5 12.4531C7.88832 12.4531 8.20312 12.1383 8.20312 11.75C8.20312 11.3617 7.88832 11.0469 7.5 11.0469C7.11167 11.0469 6.79688 11.3617 6.79688 11.75C6.79688 12.1383 7.11167 12.4531 7.5 12.4531Z" fill="black"/>
</svg>
